HIERARCHY
ROOT root
{
	OFFSET	0	13.1	24.9
	CHANNELS 6  Xposition Yposition Zposition Xrotation Yrotation Zrotation
	JOINT spine_1
	{
		OFFSET	0	9.99999	0
		CHANNELS 3  Xrotation Yrotation Zrotation
		JOINT spine_2
		{
			OFFSET	0	112	-10
			CHANNELS 3  Xrotation Yrotation Zrotation
			JOINT spine_3
			{
				OFFSET	0	206.5	19.3
				CHANNELS 3  Xrotation Yrotation Zrotation
				JOINT spine_4
				{
					OFFSET	0	110.4	14.6
					CHANNELS 3  Xrotation Yrotation Zrotation
					JOINT neck_1
					{
						OFFSET	0	71.8	-50.3
						CHANNELS 3  Xrotation Yrotation Zrotation
						JOINT neck_2
						{
							OFFSET	0	86.2	-25.8
							CHANNELS 3  Xrotation Yrotation Zrotation
							JOINT head_ee
							{
								OFFSET	0	179.8	-8.7
								CHANNELS 3  Xrotation Yrotation Zrotation
								End Site
								{
									OFFSET	1	0	0
								}
							}
						}
					}
					JOINT left_clavicle
					{
						OFFSET	-43.2	22.4	-70.8
						CHANNELS 3  Xrotation Yrotation Zrotation
						JOINT left_shoulder
						{
							OFFSET	-93.9	-5.79999	48.7
							CHANNELS 3  Xrotation Yrotation Zrotation
							JOINT left_elbow
							{
								OFFSET	-291.4	-30.8	15.2
								CHANNELS 3  Xrotation Yrotation Zrotation
								JOINT left_lowarm_twist
								{
									OFFSET	-110.7	-3.89999	13.6
									CHANNELS 3  Xrotation Yrotation Zrotation
									JOINT left_hand
									{
										OFFSET	-110.7	-3.89999	13.6
										CHANNELS 3  Xrotation Yrotation Zrotation
										JOINT left_ee
										{
											OFFSET	-80.8	-5.10001	12.1
											CHANNELS 3  Xrotation Yrotation Zrotation
											End Site
											{
												OFFSET	1	0	0
											}
										}
									}
								}
							}
						}
					}
					JOINT right_clavicle
					{
						OFFSET	43.2	22.4	-70.8
						CHANNELS 3  Xrotation Yrotation Zrotation
						JOINT right_shoulder
						{
							OFFSET	93.9	-5.79999	48.7
							CHANNELS 3  Xrotation Yrotation Zrotation
							JOINT right_elbow
							{
								OFFSET	291.4	-30.8	15.2
								CHANNELS 3  Xrotation Yrotation Zrotation
								JOINT right_lowarm_twist
								{
									OFFSET	110.7	-3.89999	13.6
									CHANNELS 3  Xrotation Yrotation Zrotation
									JOINT right_hand
									{
										OFFSET	110.7	-3.89999	13.6
										CHANNELS 3  Xrotation Yrotation Zrotation
										JOINT right_ee
										{
											OFFSET	80.8	-5.10001	12.1
											CHANNELS 3  Xrotation Yrotation Zrotation
											End Site
											{
												OFFSET	1	0	0
											}
										}
									}
								}
							}
						}
					}
				}
			}
		}
	}
	JOINT left_hip
	{
		OFFSET	-82.8	-127.5	0.300001
		CHANNELS 3  Xrotation Yrotation Zrotation
		JOINT left_knee
		{
			OFFSET	-28.2	-396.7	2.2
			CHANNELS 3  Xrotation Yrotation Zrotation
			JOINT left_ankle
			{
				OFFSET	-11.7	-411.3	35.4
				CHANNELS 3  Xrotation Yrotation Zrotation
				JOINT left_toes
				{
					OFFSET	0	-60	-88.6
					CHANNELS 3  Xrotation Yrotation Zrotation
					JOINT left_foot_ee
					{
						OFFSET	-22.5	-16.5	-42.2
						CHANNELS 3  Xrotation Yrotation Zrotation
						End Site
						{
							OFFSET	1	0	0
						}
					}
				}
			}
		}
	}
	JOINT right_hip
	{
		OFFSET	82.8	-127.5	0.300001
		CHANNELS 3  Xrotation Yrotation Zrotation
		JOINT right_knee
		{
			OFFSET	28.2	-396.7	2.2
			CHANNELS 3  Xrotation Yrotation Zrotation
			JOINT right_ankle
			{
				OFFSET	11.7	-411.3	35.4
				CHANNELS 3  Xrotation Yrotation Zrotation
				JOINT right_toes
				{
					OFFSET	0	-60	-88.6
					CHANNELS 3  Xrotation Yrotation Zrotation
					JOINT right_foot_ee
					{
						OFFSET	22.5	-16.5	-42.2
						CHANNELS 3  Xrotation Yrotation Zrotation
						End Site
						{
							OFFSET	1	0	0
						}
					}
				}
			}
		}
	}
}
MOTION
Frames: 7
Frame Time: 0.02
3177.02 653.055 -1669.29 -25.1534418498 19.4223286196 14.0022377341 9.23365 -0.162756 -0.0508289 9.23363 -0.159191 -0.0610824 9.23382 -0.155899 -0.0690548 9.23385 -0.164848 -0.0435668 -9.28068 5.24266 -2.10156 -9.29456 11.2821 -0.812456 -0.0 0.0 -0.0 -6.01591 18.5038 -7.00802 -26.8678 -67.8631 81.5959 0.230643 -6.51815 0.0131335 -1.88894 -0.0703736 0.230937 -11.1351 31.6287 -56.8445 -0.0 0.0 -0.0 6.06722 4.76638 -11.6373 -5.43817 33.3783 -65.8515 0.827661 22.2934 -0.163084 -65.3636 5.95633 -5.23661 -12.3118 -33.7628 67.2667 0.0 0.0 0.0 52.7134 -2.37957 -6.41379 -2.5082 0.0951158 0.373144 4.11748 2.23978 -0.599423 -18.0809 0.0 0.0 -0.0 0.0 -0.0 12.9269 3.23265 -4.67109 -17.0351 -0.319153 -2.58511 39.76 -9.29944 4.85055 -6.38917 0.0 0.0 0.0 0.0 0.0 
3158.71353964 656.348 -1692.24837122 -24.0826631591 20.2505332594 13.7181465141 9.08614 0.227871 -0.117259 9.08612 0.234871 -0.102522 9.08575 0.239989 -0.0898916 9.08581 0.22278 -0.126665 -9.99239 5.0284 -2.13063 -10.0138 10.9035 -0.823384 -0.0 0.0 -0.0 -7.06413 20.2635 -8.09395 -19.9464 -68.0967 89.3804 0.250813 -7.08261 0.015522 -2.6089 -0.0991973 0.318337 -11.0908 32.0479 -55.3502 -0.0 0.0 -0.0 5.71588 4.16826 -10.9436 -7.19276 32.0045 -66.1096 0.706926 19.2998 -0.120202 -63.7071 5.74705 -5.20155 -12.3101 -33.7988 67.0798 0.0 0.0 0.0 50.8097 -2.71538 -5.9966 -6.8857 0.221653 1.03287 5.66672 2.32871 -0.821012 -18.3159 0.0 0.0 -0.0 0.0 -0.0 12.4604 4.78047 -4.72485 -19.333 -0.302979 -2.93728 38.8559 -6.60954 4.75901 -6.05473 0.0 0.0 0.0 0.0 0.0 
3158.56805253 656.348 -1692.13160534 -24.1380118677 20.5827852392 13.8768087149 9.08614 0.227871 -0.117259 9.08612 0.234871 -0.102522 9.08575 0.239989 -0.0898916 9.08581 0.22278 -0.126665 -9.99239 5.0284 -2.13063 -10.0138 10.9035 -0.823384 -0.0 0.0 -0.0 -7.06413 20.2635 -8.09395 -19.9464 -68.0967 89.3804 0.250813 -7.08261 0.015522 -2.6089 -0.0991973 0.318337 -11.0908 32.0479 -55.3502 -0.0 0.0 -0.0 5.71588 4.16826 -10.9436 -7.19276 32.0045 -66.1096 0.706926 19.2998 -0.120202 -63.7071 5.74705 -5.20155 -12.3101 -33.7988 67.0798 0.0 0.0 0.0 50.8097 -2.71538 -5.9966 -6.8857 0.221653 1.03287 5.66672 2.32871 -0.821012 -18.3159 0.0 0.0 -0.0 0.0 -0.0 12.4604 4.78047 -4.72485 -19.333 -0.302979 -2.93728 38.8559 -6.60954 4.75901 -6.05473 0.0 0.0 0.0 0.0 0.0 
3158.41040408 656.348 -1692.00334937 -24.1995693747 20.9445811121 14.0504467026 9.08614 0.227871 -0.117259 9.08612 0.234871 -0.102522 9.08575 0.239989 -0.0898916 9.08581 0.22278 -0.126665 -9.99239 5.0284 -2.13063 -10.0138 10.9035 -0.823384 -0.0 0.0 -0.0 -7.06413 20.2635 -8.09395 -19.9464 -68.0967 89.3804 0.250813 -7.08261 0.015522 -2.6089 -0.0991973 0.318337 -11.0908 32.0479 -55.3502 -0.0 0.0 -0.0 5.71588 4.16826 -10.9436 -7.19276 32.0045 -66.1096 0.706926 19.2998 -0.120202 -63.7071 5.74705 -5.20155 -12.3101 -33.7988 67.0798 0.0 0.0 0.0 50.8097 -2.71538 -5.9966 -6.8857 0.221653 1.03287 5.66672 2.32871 -0.821012 -18.3159 0.0 0.0 -0.0 0.0 -0.0 12.4604 4.78047 -4.72485 -19.333 -0.302979 -2.93728 38.8559 -6.60954 4.75901 -6.05473 0.0 0.0 0.0 0.0 0.0 
3140.4208582 657.64 -1703.25171697 -23.8301956786 20.7676039841 13.9093431965 8.93328 -0.0585575 -0.0475434 8.93328 -0.0554135 -0.0511732 8.93333 -0.0524712 -0.0541861 8.93333 -0.0603704 -0.0452192 -10.3964 4.32818 -2.10667 -10.4141 9.56896 -0.9416 -0.0 0.0 -0.0 -6.89933 20.2383 -7.85109 -17.4756 -68.2849 91.5739 0.278455 -7.8539 0.0191148 -2.21582 -0.0833241 0.270663 -11.0147 31.967 -54.6986 -0.0 0.0 -0.0 5.3115 4.13892 -10.1273 -7.35034 32.6667 -66.633 0.785831 21.2698 -0.147562 -64.7244 5.87546 -5.2238 -12.2946 -33.7646 66.9311 0.0 0.0 0.0 50.6683 -3.44542 -5.54253 -9.95773 0.280181 1.50059 5.64103 0.519247 -0.820402 -17.7984 0.0 0.0 -0.0 0.0 -0.0 13.1448 7.14291 -4.46338 -21.7988 -0.26993 -3.31416 39.3196 -10.0143 4.81636 -5.84136 0.0 0.0 0.0 0.0 0.0 
3093.54598993 661.424 -1742.04517399 -23.0971372155 22.0669515361 13.7679700957 8.6695 -0.543143 -0.093297 8.66935 -0.536106 -0.12767 8.6708 -0.52742 -0.159804 8.67118 -0.546039 -0.0745 -9.49457 3.18597 -1.9846 -9.49516 7.34132 -1.17564 -0.0 0.0 -0.0 -5.83201 21.5433 -5.87022 -20.7871 -70.7293 87.3256 0.194272 -5.49715 0.0093267 -2.46277 -0.093258 0.300626 -10.6319 31.0431 -52.638 -0.0 0.0 -0.0 4.12564 2.86524 -7.81344 -11.9163 32.4692 -67.503 0.818067 22.0599 -0.159463 -67.3475 6.20806 -5.27057 -12.3784 -33.8159 68.3532 0.0 0.0 0.0 48.6979 -5.68114 -4.3029 -19.7497 0.298533 3.00106 9.29051 -1.14206 -1.34052 -16.46 0.0 0.0 -0.0 0.0 -0.0 15.9225 12.8636 -4.46435 -31.4283 0.013287 -4.76313 39.6797 -21.1925 5.02766 -3.84489 0.0 0.0 0.0 0.0 0.0 
3092.91785472 661.424 -1741.31815324 -23.1772370888 22.5241115421 13.9790996052 8.6695 -0.543143 -0.093297 8.66935 -0.536106 -0.12767 8.6708 -0.52742 -0.159804 8.67118 -0.546039 -0.0745 -9.49457 3.18597 -1.9846 -9.49516 7.34132 -1.17564 -0.0 0.0 -0.0 -5.83201 21.5433 -5.87022 -20.7871 -70.7293 87.3256 0.194272 -5.49715 0.0093267 -2.46277 -0.093258 0.300626 -10.6319 31.0431 -52.638 -0.0 0.0 -0.0 4.12564 2.86524 -7.81344 -11.9163 32.4692 -67.503 0.818067 22.0599 -0.159463 -67.3475 6.20806 -5.27057 -12.3784 -33.8159 68.3532 0.0 0.0 0.0 48.6979 -5.68114 -4.3029 -19.7497 0.298533 3.00106 9.29051 -1.14206 -1.34052 -16.46 0.0 0.0 -0.0 0.0 -0.0 15.9225 12.8636 -4.46435 -31.4283 0.013287 -4.76313 39.6797 -21.1925 5.02766 -3.84489 0.0 0.0 0.0 0.0 0.0 
